<?xml version="1.0" encoding="iso-8859-1"?>
<!-- Generator: Adobe Illustrator 18.0.0, SVG Export Plug-In . SVG Version: 6.00 Build 0)  -->
<!DOCTYPE svg PUBLIC "-//W3C//DTD SVG 1.1//EN" "http://www.w3.org/Graphics/SVG/1.1/DTD/svg11.dtd">
<svg version="1.1" id="Capa_1" xmlns="http://www.w3.org/2000/svg" xmlns:xlink="http://www.w3.org/1999/xlink" x="0px" y="0px"
	 viewBox="0 0 456.936 456.936" style="enable-background:new 0 0 456.936 456.936;" xml:space="preserve"  fill="orange">
<g>
	<path id="time-3-icon" d="M454.209,177.697c-1.033-2.896-3.129-5.214-5.901-6.529l-19.401-9.195c-3.266-1.548-7.091-1.739-10.495-0.523
		c-10.199,3.64-21.568,3.391-32.033-0.708l-0.391-0.151c-4.613-1.755-9.548-2.639-14.497-2.621
		c0.677-6.598,2.455-13.191,5.454-19.518c0.946-1.996,0.095-4.381-1.901-5.328L203.351,51.748c-1.999-0.947-4.382-0.094-5.328,1.901
		l-2.57,5.422l-29.82-14.134c-1.998-0.946-4.381-0.094-5.328,1.901l-5.996,12.651L29.607,0.386c-2-0.946-4.381-0.095-5.328,1.901
		L2.436,48.373c-0.454,0.959-0.509,2.059-0.152,3.058c0.356,0.999,1.095,1.815,2.054,2.27l124.702,59.104l-0.856,1.807
		L48.663,76.923c-0.959-0.454-2.058-0.509-3.058-0.152c-0.999,0.356-1.815,1.095-2.27,2.054l-7.709,16.266
		c-0.946,1.996-0.095,4.381,1.901,5.328l79.52,37.689l-5.568,11.747c-0.454,0.959-0.509,2.059-0.152,3.058
		c0.356,0.999,1.095,1.815,2.054,2.27c4.103,1.945,7.204,5.371,8.73,9.647c1.526,4.276,1.295,8.892-0.649,12.995l-4.503,9.501
		c-4.26,8.988-1.989,19.622,5.523,25.859c3.948,3.277,7.342,7.146,10.089,11.503c4.939,7.814,7.571,16.86,7.612,26.143l0.003,0.538
		c0.002,0.23,0.004,0.462,0.001,0.775c0.318,33.104,17.113,63.576,44.926,81.514c27.788,17.922,62.439,20.653,92.69,7.302
		c12.015-5.299,24.131-11.394,36.014-18.115c2.132-1.208,4.555-1.027,6.481,0.484c1.919,1.504,2.67,3.804,2.01,6.15
		c-5.008,17.785-12.629,43.359-20.5,64.193c-7.242,19.167,1.49,41.113,19.878,49.96c18.382,8.844,36.182,13.304,53.048,13.303
		c2.912,0,5.799-0.133,8.653-0.399c14.943-1.395,27.69-11.017,33.267-25.112c20.671-52.246,23.511-103.609,22.254-137.497
		c-1.363-36.736-7.529-60.811-7.792-61.817c-0.298-1.146-1.088-2.101-2.158-2.608l-21.789-10.327
		c0.004-0.008,0.009-0.015,0.014-0.023c3.792-6.724,5.605-14.234,5.293-21.845l5.488-4.637c4.805-4.059,11.581-4.943,17.266-2.248
		l3.226,1.528c5.728,2.716,12.601,0.265,15.318-5.467C455.088,183.713,455.242,180.591,454.209,177.697z M312.62,206.455
		c-6.866,14.488-18.958,25.433-34.048,30.818c-5.52,1.97-11.201,3.101-16.895,3.419l45.169-95.318
		C319.363,162.573,322.354,185.918,312.62,206.455z M252.9,240.531c-6.912-0.642-13.733-2.493-20.195-5.556l-79.52-37.69
		l5.567-11.747l60.092,28.481c2.552,1.209,5.243,1.781,7.895,1.781c6.929,0,13.586-3.909,16.746-10.575
		c2.121-4.474,2.369-9.499,0.705-14.133c-1.652-4.656-5.025-8.388-9.499-10.508l-60.092-28.481l10.279-21.687l60.092,28.481
		c2.517,1.192,5.209,1.793,7.913,1.793c2.095,0,4.198-0.361,6.229-1.086c4.653-1.661,8.382-5.035,10.499-9.501
		c2.12-4.474,2.369-9.499,0.705-14.133c-1.652-4.656-5.025-8.388-9.499-10.508l-60.092-28.481l3.855-8.133l79.52,37.689
		c6.544,3.102,12.269,7.242,17.07,12.132L252.9,240.531z M171.172,159.334l60.092,28.481c2.538,1.203,4.45,3.316,5.391,5.967
		c0.945,2.633,0.803,5.48-0.4,8.018c-2.48,5.232-8.754,7.472-13.985,4.991l-60.092-28.481L171.172,159.334z M197.298,104.212
		l60.093,28.481c2.537,1.203,4.45,3.316,5.39,5.967c0.945,2.632,0.803,5.48-0.399,8.018c-1.202,2.536-3.317,4.451-5.958,5.393
		c-2.641,0.943-5.493,0.8-8.026-0.402l-60.092-28.481L197.298,104.212z M145.955,193.86l-18.976-8.994l51.395-108.436l18.976,8.994
		L145.955,193.86z M11.378,48.185L29.795,9.329l121.088,57.391l-18.417,38.857L11.378,48.185z M120.474,130.878L44.568,94.902
		l4.283-9.037l75.906,35.976L120.474,130.878z M120.285,149.955l45.536-96.075l11.747,5.568l-48.262,101.827
		C127.517,156.792,124.436,152.812,120.285,149.955z M409.217,428.482c-4.463,11.279-14.644,18.977-26.571,20.089
		c-17.917,1.673-37.261-2.415-57.489-12.147c-14.684-7.065-21.652-24.602-15.863-39.924c7.973-21.103,15.667-46.915,20.718-64.853
		c1.545-5.493-0.284-11.093-4.775-14.614c-2.531-1.984-5.5-2.991-8.5-2.991c-2.332,0-4.682,0.609-6.857,1.841
		c-11.652,6.591-23.53,12.566-35.303,17.758c-27.782,12.26-59.604,9.754-85.125-6.705c-25.545-16.475-40.97-44.463-41.262-74.789
		c0.003-0.284,0-0.565-0.002-0.844l-0.002-0.489c-0.048-10.804-3.108-21.315-8.848-30.397c-3.196-5.066-7.147-9.57-11.744-13.387
		c-4.323-3.589-5.844-9.542-3.962-14.897l105.647,50.073c9.252,4.385,19.151,6.593,29.092,6.592c7.7,0,15.426-1.325,22.891-3.99
		c17.103-6.104,30.807-18.507,38.589-34.926c7.78-16.415,8.703-34.875,2.598-51.981c-6.104-17.105-18.507-30.811-34.921-38.591
		L181.8,69.2l2.998-6.325l10.843,5.14c1.999,0.947,4.382,0.094,5.328-1.901l2.57-5.422l164.567,77.999
		c-13.386,33.096,1.264,71.424,33.932,86.907l21.762,10.314C426.906,249.507,444.909,338.269,409.217,428.482z M446.546,183.059
		c-0.827,1.744-2.919,2.49-4.663,1.664l-3.226-1.529c-8.512-4.034-18.659-2.712-25.854,3.366l-7.032,5.941
		c-0.999,0.844-1.522,2.124-1.401,3.426c0.623,6.701-0.814,13.374-4.157,19.302c-0.045,0.08-0.098,0.158-0.144,0.238
		c-17.747-10.734-28.216-29.648-28.854-49.489c4.07-0.053,8.134,0.646,11.916,2.085l0.35,0.135
		c12.244,4.796,25.603,5.075,37.62,0.786c1.42-0.506,3.017-0.428,4.38,0.219l19.401,9.195c0.841,0.399,1.478,1.105,1.793,1.989
		C446.99,181.269,446.944,182.218,446.546,183.059z"/>
	<path id="time-3-icon" d="M267.393,271.336l-91.579-43.404c-2.761-1.31-5.974-1.155-8.595,0.415c-2.622,1.568-4.278,4.327-4.43,7.378l-1.168,23.483
		c-1.375,27.675,14.283,52.404,39.891,63c8.19,3.389,16.681,5.036,25.052,5.036c17.801,0,35.056-7.45,47.696-21.432
		c4.691-5.19,6.598-12.103,5.231-18.964C278.125,279.987,273.715,274.333,267.393,271.336z M229.405,264.667l-0.334-2.64
		l22.44,10.636c-10.649,17.081-23.152,25.881-37.91,26.554c3.101-2.064,5.895-4.627,8.282-7.636
		C227.962,283.924,230.633,274.365,229.405,264.667z M268.325,300.448c-19.766,21.866-45.893,21.76-63.754,14.369
		c-17.859-7.39-36.422-25.774-34.959-55.211l1.168-23.482c0.026-0.523,0.354-0.795,0.547-0.911c0.122-0.073,0.325-0.164,0.578-0.164
		c0.146,0,0.31,0.031,0.483,0.113l48.105,22.8l0.976,7.71c0.955,7.544-1.123,14.979-5.851,20.936
		c-4.728,5.956-11.497,9.667-19.062,10.449c-1.904,0.197-3.364,1.728-3.534,3.634c-0.17,1.907,1.073,3.679,2.913,4.21
		c5.523,1.596,10.838,2.392,15.945,2.392c18.483,0,34.205-10.441,46.909-31.18l5.176,2.453c4.013,1.902,6.812,5.49,7.68,9.846
		C272.513,292.766,271.303,297.154,268.325,300.448z"/>
	<path id="time-3-icon" d="M335.06,252.503c2.312,1.096,4.785,1.647,7.27,1.647c1.926,0,3.858-0.332,5.726-0.998c4.277-1.526,7.703-4.626,9.648-8.729
		c4.015-8.471,0.39-18.628-8.081-22.644c-8.47-4.014-18.628-0.389-22.643,8.082C322.965,238.331,326.59,248.488,335.06,252.503z
		 M334.209,233.287c1.537-3.244,4.776-5.145,8.147-5.145c1.29,0,2.6,0.278,3.84,0.867c4.484,2.125,6.403,7.503,4.278,11.987v0
		c-1.029,2.172-2.843,3.813-5.107,4.621c-2.264,0.809-4.707,0.686-6.88-0.344C334.002,243.149,332.083,237.771,334.209,233.287z"/>
	<path id="time-3-icon" d="M382.887,253.133c-22.395-0.439-41.757,16.624-44.039,38.93c-2.333,22.812-8.584,58.604-25.113,99.569
		c-6.145,15.231,0.684,32.739,15.546,39.858c16.602,7.953,32.379,12.319,46.895,12.977c0.471,0.021,0.938,0.032,1.406,0.032
		c12.884,0,24.424-8.05,29-20.386c6.172-16.644,25.814-75.372,19.443-132.257c-2.412-21.536-20.517-38.173-42.112-38.7
		L382.887,253.133z M383.717,261.155c0.905,0.022,1.8,0.087,2.688,0.177l1.349,2.552l-21.482,11.351l-4.176-7.902
		c5.908-4.053,13.053-6.365,20.619-6.202L383.717,261.155z M418.143,293.406c0.456,4.213,0.767,8.437,0.947,12.653l-5.434-10.282
		L418.143,293.406z M405.977,400.384l-7.898,4.173l-11.355-21.49l21.484-11.354l3.496,6.615
		C409.857,386.498,407.869,393.94,405.977,400.384z M334.947,354.225c1.904-6.764,3.534-13.264,4.932-19.458l9.595-5.071
		l11.352,21.483l-21.487,11.357L334.947,354.225z M346.616,294.671l16.32-8.624l11.354,21.485l-21.481,11.352l-7.446-14.091
		C345.864,301.203,346.275,297.827,346.616,294.671z M367.899,347.44l-11.351-21.482l21.481-11.352l11.352,21.481L367.899,347.44z
		 M393.12,343.162l11.351,21.478l-21.483,11.354l-11.349-21.479L393.12,343.162z M345.737,322.622l-3.703,1.957
		c0.444-2.258,0.856-4.464,1.239-6.618L345.737,322.622z M364.564,358.253l11.35,21.479l-21.486,11.355l-11.351-21.478
		L364.564,358.253z M379.651,386.805l11.355,21.489l-21.484,11.352l-11.356-21.487L379.651,386.805z M415.52,358.8l-3.977,2.102
		l-11.351-21.478l18.652-9.857C418.239,339.671,417.047,349.509,415.52,358.8z M417.935,320.994l-21.482,11.354l-11.352-21.48
		l21.482-11.353L417.935,320.994z M381.363,303.794l-11.354-21.485l21.482-11.352l11.354,21.484L381.363,303.794z M355.896,272.725
		l3.302,6.249l-10.468,5.531C350.335,280.1,352.797,276.112,355.896,272.725z M321.154,394.626
		c2.298-5.696,4.395-11.29,6.321-16.771l8.529-4.508l11.351,21.478l-27.089,14.317C319.036,404.47,319.228,399.4,321.154,394.626z
		 M323.605,416.426l27.488-14.527l11.355,21.486l-13.974,7.384c-5.131-1.767-10.381-3.926-15.738-6.492
		C328.928,422.451,325.848,419.697,323.605,416.426z M366.187,430.457l2.815,5.327c-3.107-0.422-6.277-1.026-9.502-1.794
		L366.187,430.457z M378.421,436.485l-5.161-9.765l21.484-11.352l3.814,7.219C394.981,430.787,387.199,436.169,378.421,436.485z
		 M416.398,285.279l-6.48,3.424l-11.354-21.484l2.191-1.158C407.992,270.344,413.624,277.136,416.398,285.279z"/>
</g>
<g>
</g>
<g>
</g>
<g>
</g>
<g>
</g>
<g>
</g>
<g>
</g>
<g>
</g>
<g>
</g>
<g>
</g>
<g>
</g>
<g>
</g>
<g>
</g>
<g>
</g>
<g>
</g>
<g>
</g>
</svg>
