<?xml version="1.0" encoding="iso-8859-1"?>
<!-- Generator: Adobe Illustrator 19.0.0, SVG Export Plug-In . SVG Version: 6.00 Build 0)  -->
<svg version="1.1" id="Layer_1" xmlns="http://www.w3.org/2000/svg" xmlns:xlink="http://www.w3.org/1999/xlink" x="0px" y="0px"
	 viewBox="0 0 512 512" style="enable-background:new 0 0 512 512;" xml:space="preserve" fill="orange">
<g>
	<g>
		<path d="M487.58,458.469l-96.703-96.703l5.698-5.698c3.475-3.475,3.475-9.108,0-12.582l-66.988-66.988l44.04-44.04
			c3.475-3.475,3.475-9.107,0-12.582l-30.619-30.619l68.367-68.368c3.475-3.475,3.475-9.107,0-12.582l-20.552-20.552l44.88-44.88
			c1.668-1.668,2.605-3.932,2.605-6.291s-0.937-4.623-2.605-6.291L408.022,2.606c-3.476-3.475-9.109-3.475-12.583,0l-44.879,44.879
			L335.04,31.967c-1.669-1.669-3.932-2.606-6.292-2.606s-4.622,0.937-6.292,2.606l-6.291,6.291l-14.68-14.68
			c-1.962-1.963-4.735-2.898-7.482-2.526c-2.751,0.371-5.172,2.006-6.545,4.419L263.13,68.253c-1.98,3.482-1.389,7.857,1.443,10.689
			l5.452,5.452L144.164,210.257c-4.807-2.693-10.245-4.134-15.906-4.134c-8.715,0-16.908,3.393-23.07,9.555l-73.82,73.82
			c-6.161,6.162-9.556,14.355-9.556,23.07c0,8.714,3.394,16.906,9.556,23.068L91.4,395.666l35.539,48.806
			c1.53,2.102,3.905,3.431,6.5,3.634c0.231,0.018,0.463,0.027,0.693,0.027c2.35,0,4.617-0.931,6.292-2.606l31.037-31.038
			c3.475-3.475,3.475-9.108,0-12.582l-20.552-20.552l50.434-50.434c24.046,2.065,45.822,16.113,57.458,37.335
			c13.667,24.927,29.821,46.793,48.016,64.988c1.738,1.738,4.015,2.606,6.292,2.606c2.277,0,4.554-0.868,6.291-2.606l20.553-20.552
			l96.702,96.702c1.738,1.738,4.015,2.606,6.292,2.606c2.277,0,4.554-0.868,6.292-2.606l38.342-38.342
			c1.668-1.668,2.605-3.932,2.605-6.291C490.185,462.4,489.248,460.137,487.58,458.469z M354.753,226.163l-37.749,37.749
			l-24.327-24.327l5.032-5.032l8.807,8.807c1.738,1.738,4.015,2.606,6.292,2.606c2.277,0,4.554-0.868,6.291-2.606
			c3.476-3.475,3.476-9.109,0.001-12.583l-8.809-8.809l20.133-20.132L354.753,226.163z M401.729,21.481l15.101,15.1l-38.588,38.588
			l-15.1-15.1L401.729,21.481z M297.156,44.416l6.425,6.425l-20.972,20.971l-0.657-0.657L297.156,44.416z M328.747,50.841
			l30.199,30.198L244.022,195.965l-19.713-19.713c-3.476-3.475-9.109-3.475-12.583,0l-43.622,43.622
			c-1.668,1.668-2.605,3.932-2.605,6.291s0.937,4.623,2.605,6.291l19.715,19.713l-12.803,12.803l-58.657-1.743L328.747,50.841z
			 M231.44,208.549l-31.038,31.038l-13.422-13.422l31.038-31.038L231.44,208.549z M43.954,323.054
			c-2.803-2.801-4.346-6.525-4.346-10.486c0-3.961,1.543-7.685,4.344-10.486l73.82-73.82c2.8-2.801,6.525-4.343,10.486-4.343
			c0.705,0,1.397,0.065,2.083,0.161l-74.646,74.647c-3.475,3.475-3.475,9.108,0,12.582l54.229,54.229l-11.744,11.744L43.954,323.054
			z M152.586,408.2l-17.388,17.387l-25.346-34.81l12.656-12.656L152.586,408.2z M138.325,368.772L74.57,305.018l24.498-24.498
			l79.258,2.354c0.088,0.002,0.176,0.004,0.265,0.004c2.356,0,4.621-0.935,6.292-2.606L371.53,93.623l0.42,0.419
			c0,0.001,0.001,0.001,0.001,0.001l20.551,20.551L138.325,368.772z M313.228,414.248c-14.51-15.664-27.547-33.973-38.826-54.547
			c-12.209-22.269-33.375-38.194-57.638-44.203l12.996-12.996l97.607,97.607L313.228,414.248z M339.951,387.524l-97.607-97.606
			l37.49-37.489l0.26-0.26l97.607,97.606L339.951,387.524z M442.945,490.519l-90.411-90.411l25.759-25.759l90.412,90.411
			L442.945,490.519z"/>
	</g>
</g>
<g>
	<g>
		<circle cx="369.01" cy="118.788" r="8.898"/>
	</g>
</g>
<g>
</g>
<g>
</g>
<g>
</g>
<g>
</g>
<g>
</g>
<g>
</g>
<g>
</g>
<g>
</g>
<g>
</g>
<g>
</g>
<g>
</g>
<g>
</g>
<g>
</g>
<g>
</g>
<g>
</g>
</svg>
